<svg xmlns="http://www.w3.org/2000/svg" width="918" height="1032" viewBox="0 0 918 1032" version="1.1"><path d="M 395.495 553.141 C 360.298 573.467, 330.480 590.655, 329.233 591.336 L 326.967 592.573 333.233 601.747 C 355.849 634.853, 389.195 656.877, 430.024 665.674 L 438.500 667.500 459 667.500 L 479.500 667.500 489.881 665.176 C 521.107 658.184, 549.393 642.370, 569.919 620.427 C 576.624 613.259, 587.116 599.611, 589.573 594.858 L 591.021 592.060 588.760 590.642 C 587.108 589.605, 463.303 518.284, 459.995 516.463 C 459.717 516.310, 430.692 532.815, 395.495 553.141 M 720.438 675.800 C 710.490 692.805, 693.412 714.428, 676.494 731.439 C 629.252 778.940, 570.377 808.412, 501.013 819.282 L 487.500 821.400 459 821.399 L 430.500 821.398 416 819.149 C 346.944 808.437, 289.080 779.264, 241.837 731.344 C 223.311 712.552, 215.431 702.847, 201.500 681.661 L 193.753 669.881 192.602 670.322 C 191.969 670.565, 151.862 693.601, 103.476 721.512 C 55.089 749.423, 14.512 772.712, 13.305 773.265 L 11.110 774.271 14.925 779.886 C 20.649 788.310, 27.551 795.585, 34.382 800.395 C 43.190 806.597, 420.424 1023.956, 427 1026.618 C 430.025 1027.843, 435.969 1029.555, 440.208 1030.422 L 447.916 1032 459 1032 L 470.084 1032 477.792 1030.422 C 482.031 1029.555, 487.975 1027.843, 491 1026.618 C 497.576 1023.956, 874.810 806.597, 883.618 800.395 C 890.463 795.575, 897.353 788.308, 903.113 779.831 L 906.965 774.161 817.733 722.727 C 768.655 694.438, 727.566 670.803, 726.424 670.204 L 724.348 669.116 720.438 675.800" stroke="none" fill="#004482" fill-rule="evenodd"/><path d="M 816 310.398 C 766.225 339.167, 696.700 379.355, 661.500 399.706 C 626.300 420.057, 594.742 438.236, 591.370 440.104 C 573.917 449.774, 460.072 515.571, 460.053 516 C 460.032 516.468, 588.986 591.049, 591.263 591.885 C 591.839 592.097, 621.828 609.368, 657.905 630.265 C 693.982 651.163, 762.875 690.982, 811 718.753 C 859.125 746.524, 900.420 770.363, 902.767 771.728 L 907.033 774.210 910.571 766.553 C 912.516 762.342, 914.984 755.473, 916.054 751.289 L 918 743.680 918 516 L 918 288.320 916.054 280.711 C 914.384 274.182, 907.751 257.909, 906.815 258.046 C 906.642 258.072, 865.775 281.630, 816 310.398 M 697 482 L 697 499 680 499 L 663 499 663 516 L 663 533 680 533 L 697 533 697 550 L 697 567 714 567 L 731 567 731 550 L 731 533 748 533 L 765 533 765 516 L 765 499 748 499 L 731 499 731 482 L 731 465 714 465 L 697 465 697 482 M 824 482 L 824 499 807 499 L 790 499 790 516 L 790 533 807 533 L 824 533 824 550 L 824 567 841.500 567 L 859 567 859 550 L 859 533 876 533 L 893 533 893 516 L 893 499 876 499 L 859 499 859 482 L 859 465 841.500 465 L 824 465 824 482 M 675.462 732.250 L 670.500 737.500 675.750 732.538 C 678.638 729.808, 681 727.446, 681 727.288 C 681 726.541, 680.074 727.372, 675.462 732.250" stroke="none" fill="#00589c" fill-rule="evenodd"/><path d="M 439.500 1.653 C 435.650 2.473, 430.025 4.148, 427 5.376 C 420.889 7.856, 46.449 223.470, 35.758 230.664 C 20.401 240.999, 7.047 260.765, 1.946 280.711 L 0 288.320 0 516 L 0 743.680 1.946 751.289 C 3.828 758.648, 10.259 774, 11.459 774 C 11.783 774, 52.843 750.487, 102.704 721.750 C 152.564 693.012, 193.828 669.646, 194.401 669.824 C 194.975 670.002, 194.717 669.327, 193.829 668.324 C 191.255 665.416, 178.677 639.574, 173.694 626.956 C 165.390 605.927, 159.084 581.723, 155.337 556.500 L 153.555 544.500 153.555 516 L 153.555 487.500 155.337 475.500 C 162.299 428.637, 178.082 386.527, 202.751 349 C 255.683 268.480, 340.148 218.685, 437 210.902 L 451.500 209.737 468.011 210.344 C 509.735 211.877, 546.756 220.413, 584.415 237.181 C 638.260 261.158, 686.006 302.404, 717.604 352.240 L 723.988 362.309 722.744 363.825 L 721.500 365.340 725.500 362.773 C 727.700 361.362, 766.400 338.953, 811.500 312.977 C 856.600 287.001, 896.540 263.983, 900.255 261.827 L 907.010 257.906 903.136 252.203 C 897.353 243.692, 890.471 236.430, 883.618 231.606 C 874.791 225.393, 497.565 8.035, 491 5.380 C 487.975 4.156, 482.031 2.445, 477.792 1.578 L 470.084 -0 458.292 0.082 L 446.500 0.163 439.500 1.653 M 445.694 364.005 C 419.328 366.510, 395.508 375.052, 373.106 390.036 L 363.807 396.257 354.264 405.378 C 339.930 419.079, 330.917 431.230, 322.200 448.604 C 315.980 461, 311.730 473.600, 308.854 488.172 L 306.619 499.500 306.619 516 L 306.619 532.500 308.823 543.665 C 310.036 549.806, 312.161 558.356, 313.546 562.665 C 316.155 570.786, 325.878 592, 326.990 592 C 327.338 592, 353.245 577.230, 384.562 559.178 C 539.407 469.916, 588.712 441.530, 591 440.327 C 592.375 439.604, 592.979 439.010, 592.343 439.006 C 591.706 439.003, 588.556 435.074, 585.343 430.276 L 579.500 421.552 569.524 411.173 C 554.079 395.104, 538.756 384.411, 518.919 375.859 C 496.411 366.155, 469.284 361.764, 445.694 364.005 M 824.411 482 C 824.411 491.625, 824.561 495.563, 824.745 490.750 C 824.928 485.938, 824.928 478.063, 824.745 473.250 C 824.561 468.438, 824.411 472.375, 824.411 482 M 858.411 482 C 858.411 491.625, 858.561 495.563, 858.745 490.750 C 858.928 485.938, 858.928 478.063, 858.745 473.250 C 858.561 468.438, 858.411 472.375, 858.411 482 M 790.411 516 C 790.411 525.625, 790.561 529.563, 790.745 524.750 C 790.928 519.938, 790.928 512.063, 790.745 507.250 C 790.561 502.438, 790.411 506.375, 790.411 516 M 892.411 516 C 892.411 525.625, 892.561 529.563, 892.745 524.750 C 892.928 519.938, 892.928 512.063, 892.745 507.250 C 892.561 502.438, 892.411 506.375, 892.411 516 M 824.411 550 C 824.411 559.625, 824.561 563.563, 824.745 558.750 C 824.928 553.938, 824.928 546.063, 824.745 541.250 C 824.561 536.438, 824.411 540.375, 824.411 550 M 858.411 550 C 858.411 559.625, 858.561 563.563, 858.745 558.750 C 858.928 553.938, 858.928 546.063, 858.745 541.250 C 858.561 536.438, 858.411 540.375, 858.411 550 M 566.462 624.250 L 561.500 629.500 566.750 624.538 C 569.638 621.808, 572 619.446, 572 619.288 C 572 618.541, 571.074 619.372, 566.462 624.250 M 453.250 668.739 C 456.413 668.937, 461.587 668.937, 464.750 668.739 C 467.913 668.541, 465.325 668.378, 459 668.378 C 452.675 668.378, 450.087 668.541, 453.250 668.739 M 442.250 821.716 C 443.762 821.945, 446.238 821.945, 447.750 821.716 L 450.500 821.300 445 821.300 L 439.500 821.300 442.250 821.716 M 469.250 821.716 C 470.762 821.945, 473.238 821.945, 474.750 821.716 L 477.500 821.300 472 821.300 L 466.500 821.300 469.250 821.716" stroke="none" fill="#3172af" fill-rule="evenodd"/></svg>