<svg xmlns="http://www.w3.org/2000/svg" width="900" height="1250" viewBox="0 0 900 1250" version="1.1"><path d="M 186.523 85.250 L 186.545 167.500 264.273 167.756 L 342 168.012 342 146.006 L 342 124 286 124 L 230 124 230 85 L 230 46 286 46 L 342 46 342 24.500 L 342 3 264.250 3 L 186.500 3 186.523 85.250 M 367 54 L 367 105 423 105 L 479 105 479 114.500 L 479 124 423 124 L 367 124 367 146.006 L 367 168.012 444.519 167.756 L 522.038 167.500 522.038 117 L 522.039 66.500 466.269 66 L 410.500 65.500 410.214 55.750 L 409.928 46 466.214 46 L 522.500 46 522.500 24.500 L 522.500 3 444.750 3 L 367 3 367 54 M 547 54 L 547 105 603 105 L 659 105 659 114.500 L 659 124 603 124 L 547 124 547 146 L 547 168 625 168 L 703 168 703 117 L 703 66 647.107 66 L 591.214 66 590.800 64.750 C 590.572 64.063, 590.411 59.675, 590.443 55 L 590.500 46.500 646.750 46.242 L 703 45.983 703 24.492 L 703 3 625 3 L 547 3 547 54" stroke="none" fill="#010101" fill-rule="evenodd"/><path d="M 225.824 2.750 C 247.453 2.900, 282.553 2.900, 303.824 2.750 C 325.096 2.599, 307.400 2.476, 264.500 2.476 C 221.600 2.476, 204.196 2.599, 225.824 2.750 M 366.458 3.250 C 366.195 3.938, 366.101 27.225, 366.249 55 L 366.519 105.500 366.759 54.256 L 367 3.012 444.750 2.750 L 522.500 2.488 444.719 2.244 L 366.937 2 366.458 3.250 M 585.750 2.750 C 607.338 2.900, 642.663 2.900, 664.250 2.750 C 685.838 2.599, 668.175 2.476, 625 2.476 C 581.825 2.476, 564.163 2.599, 585.750 2.750 M 522.423 24.500 C 522.424 36.050, 522.570 40.638, 522.747 34.696 C 522.924 28.753, 522.923 19.303, 522.745 13.696 C 522.567 8.088, 522.422 12.950, 522.423 24.500 M 410.365 55.500 L 410.370 65.500 410.738 60.216 C 410.941 57.311, 410.939 52.811, 410.734 50.216 C 410.528 47.622, 410.363 50, 410.365 55.500 M 522.463 117 C 522.463 144.225, 522.592 155.363, 522.749 141.750 C 522.906 128.137, 522.906 105.862, 522.749 92.250 C 522.592 78.637, 522.463 89.775, 522.463 117 M 366.426 146.500 C 366.427 158.600, 366.571 163.413, 366.747 157.195 C 366.923 150.977, 366.922 141.077, 366.746 135.195 C 366.569 129.313, 366.425 134.400, 366.426 146.500 M 33.776 246.733 C 36.128 246.945, 39.728 246.942, 41.776 246.727 C 43.824 246.512, 41.900 246.339, 37.500 246.343 L 29.500 246.349 33.776 246.733 M 63.776 246.733 C 66.128 246.945, 69.728 246.942, 71.776 246.727 C 73.824 246.512, 71.900 246.339, 67.500 246.343 L 59.500 246.349 63.776 246.733 M 93.776 246.733 C 96.128 246.945, 99.728 246.942, 101.776 246.727 C 103.824 246.512, 101.900 246.339, 97.500 246.343 L 89.500 246.349 93.776 246.733 M 123.776 246.733 C 126.128 246.945, 129.728 246.942, 131.776 246.727 C 133.824 246.512, 131.900 246.339, 127.500 246.343 L 119.500 246.349 123.776 246.733 M 153.776 246.733 C 156.128 246.945, 159.728 246.942, 161.776 246.727 C 163.824 246.512, 161.900 246.339, 157.500 246.343 L 149.500 246.349 153.776 246.733 M 183.776 246.733 C 186.128 246.945, 189.728 246.942, 191.776 246.727 C 193.824 246.512, 191.900 246.339, 187.500 246.343 L 179.500 246.349 183.776 246.733 M 213.776 246.733 C 216.128 246.945, 219.728 246.942, 221.776 246.727 C 223.824 246.512, 221.900 246.339, 217.500 246.343 L 209.500 246.349 213.776 246.733 M 243.776 246.733 C 246.128 246.945, 249.728 246.942, 251.776 246.727 C 253.824 246.512, 251.900 246.339, 247.500 246.343 L 239.500 246.349 243.776 246.733 M 273.776 246.733 C 276.128 246.945, 279.728 246.942, 281.776 246.727 C 283.824 246.512, 281.900 246.339, 277.500 246.343 L 269.500 246.349 273.776 246.733 M 303.776 246.733 C 306.128 246.945, 309.728 246.942, 311.776 246.727 C 313.824 246.512, 311.900 246.339, 307.500 246.343 L 299.500 246.349 303.776 246.733 M 333.776 246.733 C 336.128 246.945, 339.728 246.942, 341.776 246.727 C 343.824 246.512, 341.900 246.339, 337.500 246.343 L 329.500 246.349 333.776 246.733 M 363.776 246.733 C 366.128 246.945, 369.728 246.942, 371.776 246.727 C 373.824 246.512, 371.900 246.339, 367.500 246.343 L 359.500 246.349 363.776 246.733 M 393.776 246.733 C 396.128 246.945, 399.728 246.942, 401.776 246.727 C 403.824 246.512, 401.900 246.339, 397.500 246.343 L 389.500 246.349 393.776 246.733 M 423.776 246.733 C 426.128 246.945, 429.728 246.942, 431.776 246.727 C 433.824 246.512, 431.900 246.339, 427.500 246.343 L 419.500 246.349 423.776 246.733 M 453.776 246.733 C 456.128 246.945, 459.728 246.942, 461.776 246.727 C 463.824 246.512, 461.900 246.339, 457.500 246.343 L 449.500 246.349 453.776 246.733 M 483.776 246.733 C 486.128 246.945, 489.728 246.942, 491.776 246.727 C 493.824 246.512, 491.900 246.339, 487.500 246.343 L 479.500 246.349 483.776 246.733 M 513.776 246.733 C 516.128 246.945, 519.728 246.942, 521.776 246.727 C 523.824 246.512, 521.900 246.339, 517.500 246.343 L 509.500 246.349 513.776 246.733 M 543.776 246.733 C 546.128 246.945, 549.728 246.942, 551.776 246.727 C 553.824 246.512, 551.900 246.339, 547.500 246.343 L 539.500 246.349 543.776 246.733 M 573.776 246.733 C 576.128 246.945, 579.728 246.942, 581.776 246.727 C 583.824 246.512, 581.900 246.339, 577.500 246.343 L 569.500 246.349 573.776 246.733 M 603.776 246.733 C 606.128 246.945, 609.728 246.942, 611.776 246.727 C 613.824 246.512, 611.900 246.339, 607.500 246.343 L 599.500 246.349 603.776 246.733 M 633.776 246.733 C 636.128 246.945, 639.728 246.942, 641.776 246.727 C 643.824 246.512, 641.900 246.339, 637.500 246.343 L 629.500 246.349 633.776 246.733 M 663.776 246.733 C 666.128 246.945, 669.728 246.942, 671.776 246.727 C 673.824 246.512, 671.900 246.339, 667.500 246.343 L 659.500 246.349 663.776 246.733 M 693.776 246.733 C 696.128 246.945, 699.728 246.942, 701.776 246.727 C 703.824 246.512, 701.900 246.339, 697.500 246.343 L 689.500 246.349 693.776 246.733 M 723.776 246.733 C 726.128 246.945, 729.728 246.942, 731.776 246.727 C 733.824 246.512, 731.900 246.339, 727.500 246.343 L 719.500 246.349 723.776 246.733 M 753.776 246.733 C 756.128 246.945, 759.728 246.942, 761.776 246.727 C 763.824 246.512, 761.900 246.339, 757.500 246.343 L 749.500 246.349 753.776 246.733 M 783.776 246.733 C 786.128 246.945, 789.728 246.942, 791.776 246.727 C 793.824 246.512, 791.900 246.339, 787.500 246.343 L 779.500 246.349 783.776 246.733 M 813.776 246.733 C 816.128 246.945, 819.728 246.942, 821.776 246.727 C 823.824 246.512, 821.900 246.339, 817.500 246.343 L 809.500 246.349 813.776 246.733 M 843.776 246.733 C 846.128 246.945, 849.728 246.942, 851.776 246.727 C 853.824 246.512, 851.900 246.339, 847.500 246.343 L 839.500 246.349 843.776 246.733 M 873.776 246.733 C 876.128 246.945, 879.728 246.942, 881.776 246.727 C 883.824 246.512, 881.900 246.339, 877.500 246.343 L 869.500 246.349 873.776 246.733 M 449.917 324.416 C 449.688 324.645, 449.620 348.656, 449.767 377.773 L 450.034 430.714 588.015 430.688 C 663.904 430.673, 726.276 430.943, 726.619 431.286 C 726.962 431.629, 726.686 438.670, 726.006 446.932 C 725.325 455.194, 725.040 462.662, 725.373 463.529 L 725.977 465.104 724.898 464.437 L 723.819 463.770 724.160 470.293 C 724.347 473.880, 724.250 476.659, 723.944 476.468 C 723.466 476.171, 717.929 536.344, 717.981 541.259 L 718 543.019 711.556 546.196 L 705.113 549.374 705.711 550.341 L 706.309 551.309 705.184 550.614 L 704.059 549.918 701.029 551.485 C 699.363 552.346, 698 553.516, 698 554.085 L 698 555.118 697.029 554.518 C 695.801 553.759, 690 556.702, 690 558.085 L 690 559.118 689 558.500 L 688 557.882 688 559 L 688 560.118 687 559.500 L 686 558.882 686 560 C 686 560.615, 685.586 560.862, 685.081 560.550 C 684.575 560.237, 683.466 560.677, 682.616 561.527 C 681.767 562.376, 680.830 563.055, 680.536 563.036 C 680.241 563.016, 679.523 563, 678.941 563 L 677.882 563 678.493 563.989 L 679.104 564.977 677.681 564.431 L 676.258 563.885 674.748 565.395 C 673.918 566.225, 673.011 566.678, 672.734 566.401 C 672.457 566.123, 667.032 568.484, 660.678 571.647 L 649.127 577.397 649.718 578.353 L 650.309 579.309 649.245 578.651 C 648.659 578.290, 647.467 578.267, 646.596 578.602 L 645.011 579.210 645.660 580.259 L 646.309 581.309 645.245 580.651 C 644.659 580.290, 643.467 580.267, 642.596 580.602 L 641.011 581.210 641.660 582.259 L 642.309 583.309 641.192 582.619 L 640.075 581.928 635.037 584.481 C 632.267 585.885, 630 587.426, 630 587.906 C 630 588.385, 629.420 588.715, 628.711 588.639 C 628.002 588.562, 619.700 592.294, 610.263 596.931 L 593.105 605.361 593.707 606.335 L 594.309 607.309 593.203 606.626 L 592.097 605.942 571.049 616.476 C 559.472 622.269, 550 627.443, 550 627.973 L 550 628.937 548.577 628.391 L 547.155 627.845 545.161 629.839 C 544.064 630.936, 542.904 631.571, 542.583 631.250 C 542.262 630.929, 542 631.218, 542 631.892 L 542 633.118 541.049 632.530 C 540.526 632.207, 530.288 636.881, 518.299 642.918 C 506.309 648.954, 496.950 653.988, 497.500 654.104 C 498.050 654.220, 545.206 654.398, 602.291 654.499 L 706.082 654.682 706.894 655.591 L 707.706 656.500 706.813 666.500 C 706.321 672, 706.068 677.931, 706.251 679.680 L 706.582 682.860 705.701 682.315 L 704.819 681.770 705.160 688.293 C 705.347 691.880, 705.221 694.642, 704.881 694.429 C 704.015 693.890, 701.604 725.526, 702.360 727.497 L 702.977 729.104 702.196 728.621 L 701.415 728.138 698.626 760.319 C 695.084 801.197, 692.178 835.077, 686.518 901.500 C 684.035 930.650, 681.903 955.400, 681.782 956.500 C 681.661 957.600, 681.955 959.132, 682.435 959.905 L 683.309 961.309 682.273 960.669 L 681.237 960.028 680.526 970.460 C 680.135 976.197, 680.108 981.366, 680.466 981.946 L 681.118 983 680.059 983 L 679 983 679 987.025 L 679 991.050 676.681 991.931 C 675.405 992.416, 668.993 994.254, 662.431 996.015 C 655.869 997.776, 650.275 999.505, 650 999.858 C 649.725 1000.211, 648.154 1000.600, 646.510 1000.721 C 644.865 1000.843, 643.364 1001.408, 643.174 1001.977 C 642.984 1002.547, 642.441 1002.772, 641.966 1002.479 C 640.714 1001.705, 632 1004.065, 632 1005.178 C 632 1005.695, 631.628 1005.888, 631.173 1005.607 C 630.718 1005.326, 624.755 1006.603, 617.923 1008.445 C 585.975 1017.058, 571.476 1021.262, 571.202 1021.992 C 571.038 1022.430, 570.026 1022.558, 568.952 1022.277 L 567 1021.767 567 1022.942 L 567 1024.118 566.046 1023.528 C 565.521 1023.204, 563.949 1023.226, 562.553 1023.576 L 560.014 1024.213 560.661 1025.261 L 561.309 1026.309 560.107 1025.566 L 558.905 1024.823 553.953 1026.011 C 551.229 1026.665, 548.999 1027.492, 548.998 1027.850 C 548.996 1028.207, 547.554 1028.553, 545.792 1028.617 L 542.589 1028.734 542.209 1029.873 C 542 1030.500, 541.430 1030.766, 540.943 1030.465 C 540.456 1030.164, 527.557 1033.366, 512.278 1037.582 C 497 1041.797, 483.488 1045.468, 482.250 1045.740 C 481.012 1046.011, 480 1046.657, 480 1047.176 C 480 1047.694, 479.583 1047.860, 479.073 1047.545 C 478.563 1047.230, 471.925 1048.727, 464.323 1050.872 L 450.500 1054.771 450 1112.981 C 449.725 1144.997, 449.725 1171.297, 450 1171.426 C 450.527 1171.673, 493.941 1159.988, 552 1143.973 C 557.775 1142.380, 571.050 1138.782, 581.500 1135.977 C 630.510 1122.823, 641.832 1119.750, 649.738 1117.459 C 654.413 1116.104, 659.196 1114.800, 660.369 1114.560 C 661.541 1114.320, 664.975 1113.447, 668 1112.620 C 671.025 1111.793, 687.618 1107.285, 704.873 1102.602 C 722.128 1097.919, 736.371 1093.955, 736.524 1093.794 C 736.677 1093.632, 737.093 1090.575, 737.449 1087 C 737.805 1083.425, 738.273 1078.925, 738.489 1077 C 738.705 1075.075, 739.142 1069.900, 739.459 1065.500 C 739.776 1061.100, 740.244 1055.475, 740.498 1053 C 741.434 1043.888, 741.956 1038.313, 742.606 1030.500 C 742.972 1026.100, 743.386 1021.375, 743.526 1020 C 743.666 1018.625, 744.060 1014.125, 744.402 1010 C 745.105 1001.531, 745.899 992.648, 746.546 986 C 747.140 979.893, 747.776 972.959, 748.562 964 C 748.924 959.875, 749.360 955.150, 749.530 953.500 C 749.700 951.850, 750.125 946.675, 750.474 942 C 750.823 937.325, 751.294 932.375, 751.521 931 C 751.748 929.625, 752.209 924.675, 752.545 920 C 752.881 915.325, 753.340 909.700, 753.564 907.500 C 754.072 902.524, 754.842 893.934, 755.512 885.750 C 755.793 882.313, 756.226 877.475, 756.474 875 C 756.721 872.525, 757.200 867.125, 757.538 863 C 757.876 858.875, 758.313 853.925, 758.510 852 C 758.707 850.075, 759.124 845.350, 759.436 841.500 C 760.572 827.500, 761.105 821.440, 761.458 818.500 C 761.657 816.850, 762.133 811.225, 762.517 806 C 762.901 800.775, 763.346 795.814, 763.507 794.976 C 763.667 794.137, 764.100 789.187, 764.469 783.976 C 764.838 778.764, 765.301 773.375, 765.497 772 C 765.694 770.625, 766.136 765.675, 766.480 761 C 766.823 756.325, 767.284 750.925, 767.504 749 C 767.905 745.484, 768.571 738.152, 769.500 727 C 770.803 711.365, 771.079 708.191, 771.500 704 C 771.749 701.525, 772.210 696.575, 772.524 693 C 772.839 689.425, 773.276 684.925, 773.495 683 C 773.714 681.075, 774.192 675.225, 774.558 670 C 774.923 664.775, 775.374 659.701, 775.559 658.724 C 775.744 657.747, 776.149 653.697, 776.460 649.724 C 777.108 641.437, 777.916 632.292, 778.511 626.500 C 778.737 624.300, 779.197 618.900, 779.533 614.500 C 779.869 610.100, 780.304 604.925, 780.500 603 C 780.696 601.075, 781.135 596.125, 781.476 592 C 782.310 581.909, 782.901 575.400, 783.472 570 C 783.733 567.525, 784.218 561.745, 784.549 557.157 C 784.880 552.568, 785.296 548.057, 785.475 547.132 C 785.653 546.208, 786.108 541.412, 786.486 536.476 C 786.864 531.539, 787.310 526.150, 787.477 524.500 C 787.882 520.492, 788.987 507.819, 789.526 501 C 789.766 497.975, 790.178 493.475, 790.442 491 C 790.707 488.525, 791.183 483.125, 791.500 479 C 791.817 474.875, 792.284 469.363, 792.538 466.750 C 792.792 464.137, 793.208 459.863, 793.462 457.250 C 793.716 454.637, 794.181 449.125, 794.495 445 C 794.810 440.875, 795.262 435.925, 795.500 434 C 795.738 432.075, 796.185 427.125, 796.493 423 C 796.801 418.875, 797.255 413.475, 797.502 411 C 797.750 408.525, 798.204 403.575, 798.512 400 C 798.820 396.425, 799.260 391.475, 799.490 389 C 799.981 383.718, 800.741 375.097, 801.517 366 C 801.822 362.425, 802.268 357.475, 802.509 355 C 803.017 349.780, 803.645 342.661, 804.561 331.750 L 805.211 324 627.772 324 C 530.181 324, 450.146 324.187, 449.917 324.416 M 236.750 543.750 C 267.137 543.897, 316.862 543.897, 347.250 543.750 C 377.637 543.603, 352.775 543.483, 292 543.483 C 231.225 543.483, 206.362 543.603, 236.750 543.750 M 263.172 767.750 C 297.092 767.896, 352.892 767.896, 387.172 767.750 C 421.453 767.604, 393.700 767.485, 325.500 767.485 C 257.300 767.484, 229.253 767.604, 263.172 767.750 M 449.923 853.500 C 449.881 900.800, 449.703 940.242, 449.527 941.150 L 449.206 942.800 455.853 940.875 C 459.509 939.816, 464.525 938.438, 467 937.813 C 469.475 937.188, 471.725 936.411, 472 936.088 C 472.275 935.765, 473.175 935.500, 474 935.500 C 476.738 935.500, 511.866 925.592, 511.460 924.935 C 511.240 924.580, 512.239 924.514, 513.679 924.789 L 516.297 925.290 515.647 924.238 L 514.997 923.187 516.999 923.710 L 519 924.233 519 923.210 L 519 922.187 521.156 922.751 L 523.313 923.315 522.655 922.251 L 521.997 921.187 523.999 921.710 L 526 922.233 526 921.210 L 526 920.187 528 920.710 L 530 921.233 530 920.148 L 530 919.063 531.500 919.638 L 533 920.214 533 919.201 L 533 918.187 535 918.710 L 537 919.233 537 918.210 L 537 917.187 539.156 917.751 L 541.313 918.315 540.655 917.251 L 539.997 916.187 542.155 916.751 L 544.313 917.315 543.604 916.169 L 542.896 915.023 544.365 915.587 C 546.099 916.252, 558 913.088, 558 911.962 C 558 911.536, 558.900 911.423, 560 911.710 L 562 912.233 562 911.210 L 562 910.187 564.156 910.751 L 566.313 911.315 565.502 910.003 L 564.691 908.691 565.902 909.440 C 566.569 909.851, 568.174 909.922, 569.469 909.597 L 571.825 909.006 571.633 904.080 L 571.441 899.154 572.328 899.703 L 573.214 900.251 572.843 892.712 L 572.471 885.173 573.308 885.690 L 574.145 886.208 573.958 879.854 C 573.856 876.359, 574.095 872.716, 574.490 871.758 C 574.885 870.800, 575.032 867.120, 574.818 863.581 L 574.428 857.146 575.269 857.666 L 576.111 858.187 576.190 851.343 C 576.234 847.580, 576.322 841.012, 576.385 836.749 L 576.500 828.999 577.301 828.999 C 577.742 829, 578.099 826.638, 578.094 823.750 C 578.076 813.703, 578.708 803.281, 579.404 802.156 C 579.789 801.533, 580.084 798.655, 580.060 795.762 C 579.991 787.434, 580.853 773.548, 581.551 771.727 C 581.902 770.814, 582.008 769.524, 581.787 768.862 L 581.386 767.657 515.693 767.579 L 450 767.500 449.923 853.500" stroke="none" fill="#14a0db" fill-rule="evenodd"/><path d="M 6.632 246.701 C 6.521 246.812, 7.422 258.287, 8.634 272.201 C 9.845 286.116, 12.470 316.850, 14.468 340.500 C 19.201 396.555, 30.488 526.684, 32.942 553.500 C 33.999 565.050, 35.135 578.325, 35.467 583 C 35.799 587.675, 36.279 593.075, 36.533 595 C 36.788 596.925, 38.808 620.100, 41.023 646.500 C 44.661 689.865, 56.994 833.190, 61.976 890 C 63.061 902.375, 65.543 931.175, 67.492 954 C 69.440 976.825, 71.701 1002.925, 72.515 1012 C 73.329 1021.075, 76.249 1054.600, 79.004 1086.500 C 81.759 1118.400, 84.122 1145.126, 84.256 1145.892 L 84.500 1147.284 117.500 1156.486 C 154.099 1166.692, 194.436 1177.989, 260.500 1196.535 C 352.925 1222.483, 380.886 1230.308, 392.500 1233.479 C 399.100 1235.280, 414.264 1239.510, 426.198 1242.877 C 438.132 1246.245, 448.615 1249, 449.493 1249 C 450.371 1249, 470.982 1243.404, 495.295 1236.564 C 537.617 1224.658, 599.271 1207.406, 669 1187.958 C 686.875 1182.972, 719.950 1173.706, 742.500 1167.366 C 765.050 1161.027, 790.025 1154.045, 798 1151.852 C 805.975 1149.659, 812.964 1147.722, 813.530 1147.548 L 814.561 1147.231 819.904 1085.866 C 822.843 1052.115, 825.850 1017.750, 826.585 1009.500 C 827.321 1001.250, 829.759 973.125, 832.003 947 C 838.838 867.434, 857.729 648.507, 860.048 622 C 860.601 615.675, 861.915 600.375, 862.968 588 C 864.021 575.625, 868.723 521.400, 873.417 467.500 C 878.111 413.600, 883.773 347.900, 885.998 321.500 C 888.224 295.100, 890.485 268.775, 891.022 263 C 891.559 257.225, 891.999 251.150, 891.999 249.500 L 892 246.500 449.417 246.500 C 205.996 246.500, 6.743 246.591, 6.632 246.701 M 449.983 324.750 C 449.974 325.163, 449.981 349.238, 450 378.250 L 450.033 431 310.612 431 L 171.190 431 171.633 434.750 C 171.877 436.813, 174.095 461.888, 176.562 490.474 C 179.029 519.059, 181.402 542.802, 181.837 543.237 L 182.626 544.026 293.313 543.763 C 354.191 543.618, 404 543.612, 404 543.749 C 404 543.886, 355.923 568.038, 297.161 597.419 L 190.323 650.840 190.677 653.670 C 190.871 655.227, 191.674 664.150, 192.460 673.500 C 197.301 731.050, 200.183 763.786, 200.581 765.750 L 201.038 768 325.530 768 L 450.021 768 449.989 855 L 449.957 942 448.862 942 C 447.557 942, 396.975 928.253, 368 920.024 C 356.725 916.822, 343 912.989, 337.500 911.507 C 332 910.025, 327.389 908.706, 327.253 908.576 C 327.118 908.446, 325.887 892.401, 324.519 872.920 C 323.151 853.439, 321.746 833.788, 321.398 829.250 L 320.763 821 262.870 821 L 204.976 821 205.518 824.750 C 205.816 826.813, 208.755 860.225, 212.050 899 C 215.344 937.775, 218.543 974.525, 219.158 980.666 L 220.276 991.832 224.888 992.981 C 227.425 993.613, 239.625 997.003, 252 1000.515 C 264.375 1004.027, 294.975 1012.518, 320 1019.384 C 345.025 1026.250, 384.275 1037.073, 407.222 1043.434 C 430.169 1049.795, 449.188 1055, 449.487 1055 C 449.786 1055, 450.021 1081.213, 450.009 1113.250 L 449.988 1171.500 450.744 1171.356 C 452.503 1171.020, 506.778 1156.404, 521 1152.437 C 529.525 1150.059, 539.875 1147.233, 544 1146.158 C 548.125 1145.082, 562.525 1141.203, 576 1137.537 C 589.475 1133.871, 609.666 1128.408, 620.870 1125.397 C 632.073 1122.386, 645.064 1118.814, 649.738 1117.459 C 654.413 1116.104, 659.196 1114.800, 660.369 1114.560 C 661.541 1114.320, 664.975 1113.447, 668 1112.620 C 671.025 1111.793, 687.618 1107.285, 704.873 1102.602 C 722.128 1097.919, 736.371 1093.955, 736.524 1093.794 C 736.677 1093.632, 737.093 1090.575, 737.449 1087 C 737.805 1083.425, 738.273 1078.925, 738.489 1077 C 738.705 1075.075, 739.142 1069.900, 739.459 1065.500 C 739.776 1061.100, 740.244 1055.475, 740.498 1053 C 741.434 1043.888, 741.956 1038.313, 742.606 1030.500 C 742.972 1026.100, 743.386 1021.375, 743.526 1020 C 743.666 1018.625, 744.060 1014.125, 744.402 1010 C 745.105 1001.531, 745.899 992.648, 746.546 986 C 747.140 979.893, 747.776 972.959, 748.562 964 C 748.924 959.875, 749.360 955.150, 749.530 953.500 C 749.700 951.850, 750.125 946.675, 750.474 942 C 750.823 937.325, 751.294 932.375, 751.521 931 C 751.748 929.625, 752.209 924.675, 752.545 920 C 752.881 915.325, 753.340 909.700, 753.564 907.500 C 754.072 902.524, 754.842 893.934, 755.512 885.750 C 755.793 882.313, 756.226 877.475, 756.474 875 C 756.721 872.525, 757.200 867.125, 757.538 863 C 757.876 858.875, 758.313 853.925, 758.510 852 C 758.707 850.075, 759.124 845.350, 759.436 841.500 C 760.572 827.500, 761.105 821.440, 761.458 818.500 C 761.657 816.850, 762.133 811.225, 762.517 806 C 762.901 800.775, 763.346 795.814, 763.507 794.976 C 763.667 794.137, 764.100 789.187, 764.469 783.976 C 764.838 778.764, 765.301 773.375, 765.497 772 C 765.694 770.625, 766.136 765.675, 766.480 761 C 766.823 756.325, 767.284 750.925, 767.504 749 C 767.905 745.484, 768.571 738.152, 769.500 727 C 770.803 711.365, 771.079 708.191, 771.500 704 C 771.749 701.525, 772.210 696.575, 772.524 693 C 772.839 689.425, 773.276 684.925, 773.495 683 C 773.714 681.075, 774.192 675.225, 774.558 670 C 774.923 664.775, 775.374 659.701, 775.559 658.724 C 775.744 657.747, 776.149 653.697, 776.460 649.724 C 777.108 641.437, 777.916 632.292, 778.511 626.500 C 778.737 624.300, 779.197 618.900, 779.533 614.500 C 779.869 610.100, 780.304 604.925, 780.500 603 C 780.696 601.075, 781.135 596.125, 781.476 592 C 782.310 581.909, 782.901 575.400, 783.472 570 C 783.733 567.525, 784.218 561.745, 784.549 557.157 C 784.880 552.568, 785.296 548.057, 785.475 547.132 C 785.653 546.208, 786.108 541.412, 786.486 536.476 C 786.864 531.539, 787.310 526.150, 787.477 524.500 C 787.882 520.492, 788.987 507.819, 789.526 501 C 789.766 497.975, 790.178 493.475, 790.442 491 C 790.707 488.525, 791.183 483.125, 791.500 479 C 791.817 474.875, 792.284 469.363, 792.538 466.750 C 792.792 464.137, 793.208 459.863, 793.462 457.250 C 793.716 454.637, 794.181 449.125, 794.495 445 C 794.810 440.875, 795.262 435.925, 795.500 434 C 795.738 432.075, 796.185 427.125, 796.493 423 C 796.801 418.875, 797.255 413.475, 797.502 411 C 797.750 408.525, 798.204 403.575, 798.512 400 C 798.820 396.425, 799.260 391.475, 799.490 389 C 799.981 383.718, 800.741 375.097, 801.517 366 C 801.822 362.425, 802.268 357.475, 802.509 355 C 803.017 349.780, 803.645 342.661, 804.561 331.750 L 805.211 324 627.606 324 L 450 324 449.983 324.750" stroke="none" fill="#045ea3" fill-rule="evenodd"/></svg>