<svg xmlns="http://www.w3.org/2000/svg" width="2048" height="2048" viewBox="0 0 2048 2048" version="1.1"><path d="M 433 138 L 433 276 480 276 L 527 276 527 230 L 527 184 568.500 184 L 610 184 610 230 L 610 276 656.500 276 L 703 276 703 138 L 703 0 656.500 0 L 610 0 610 45.500 L 610 91 568 91 L 526 91 526 45.500 L 526 0 479.500 0 L 433 0 433 138 M 742 46 L 742 92 783 92 L 824 92 824 184 L 824 276 870 276 L 916 276 916 184 L 916 92 957 92 L 998 92 998 46 L 998 0 870 0 L 742 0 742 46 M 1038 137.990 L 1038 276 1083.493 276 L 1128.986 276 1129.243 208.785 L 1129.500 141.571 1161 190.201 L 1192.500 238.831 1193.584 237.666 C 1194.181 237.024, 1208.581 215.018, 1225.584 188.763 L 1256.500 141.026 1256.757 208.513 L 1257.014 276 1303.507 276 L 1350 276 1350 138 L 1350 0 1301.174 0 L 1252.347 0 1224.023 46.515 C 1208.445 72.098, 1195.189 93.726, 1194.567 94.578 L 1193.434 96.126 1164.304 48.313 L 1135.174 0.500 1086.587 0.240 L 1038 -0.019 1038 137.990 M 1394 138 L 1394 276 1506.010 276 L 1618.020 276 1617.760 230.250 L 1617.500 184.500 1552.250 184.243 L 1487 183.986 1487 91.993 L 1487 0 1440.500 0 L 1394 0 1394 138" stroke="none" fill="#000000" fill-rule="evenodd"/><path d="M 1024 614.500 L 1024 705 1251 705 L 1478 705 1478 707.527 C 1478 708.916, 1474.400 748.898, 1470 796.376 C 1465.600 843.853, 1462 883.667, 1462 884.849 L 1462 887 1243 887 L 1024 887 1024 979.496 L 1024 1071.992 903.750 1072.250 C 837.612 1072.392, 932.337 1072.619, 1114.250 1072.754 L 1445 1073 1444.977 1074.750 C 1444.922 1078.867, 1395.222 1630.106, 1394.879 1630.406 C 1394.671 1630.588, 1311.128 1653.858, 1209.229 1682.118 L 1023.958 1733.500 1023.989 1827.427 C 1024.006 1879.086, 1024.128 1921.449, 1024.260 1921.567 C 1024.558 1921.831, 1503.091 1788.242, 1503.573 1787.760 C 1503.765 1787.568, 1529.142 1505.506, 1559.967 1160.955 C 1590.791 816.405, 1616.286 532.138, 1616.621 529.250 L 1617.230 524 1320.615 524 L 1024 524 1024 614.500 M 1023.500 1399.367 L 1023.500 1544.734 1030 1542.949 C 1033.575 1541.968, 1078.800 1529.835, 1130.500 1515.987 C 1182.200 1502.139, 1224.845 1490.485, 1225.266 1490.089 C 1225.847 1489.542, 1246.972 1261.241, 1246.995 1255.250 L 1247 1254 1135.250 1254 L 1023.500 1254 1023.500 1399.367" stroke="none" fill="#f16524" fill-rule="evenodd"/><path d="M 298.434 407.750 C 298.781 410.913, 309.633 532.300, 322.551 677.500 C 335.469 822.700, 348.042 964, 350.492 991.500 C 352.942 1019, 359.694 1094.825, 365.496 1160 C 371.299 1225.175, 380.321 1326.425, 385.545 1385 C 394.467 1485.024, 397.212 1515.830, 408.448 1642 C 410.921 1669.775, 416.773 1735.443, 421.452 1787.929 C 426.131 1840.416, 430.306 1883.673, 430.729 1884.058 C 431.660 1884.903, 1020.870 2048.005, 1022.979 2048.002 C 1023.793 2048.001, 1037.293 2044.435, 1052.979 2040.077 C 1128.121 2019.203, 1360.500 1954.814, 1402 1943.369 C 1414.925 1939.804, 1436.525 1933.815, 1450 1930.060 C 1463.475 1926.305, 1506.675 1914.340, 1546 1903.472 C 1585.325 1892.604, 1617.608 1883.631, 1617.740 1883.533 C 1617.871 1883.435, 1620.018 1860.437, 1622.510 1832.427 C 1625.002 1804.417, 1630.395 1743.925, 1634.495 1698 C 1638.595 1652.075, 1643.771 1594.025, 1645.997 1569 C 1648.224 1543.975, 1653.399 1485.925, 1657.497 1440 C 1665.177 1353.949, 1669.772 1302.380, 1677.547 1215 C 1680.019 1187.225, 1685.395 1126.925, 1689.495 1081 C 1693.595 1035.075, 1698.772 977.025, 1700.999 952 C 1706.272 892.741, 1722.793 707.351, 1728.490 643.500 C 1738.690 529.168, 1741.197 501.090, 1745.491 453.044 C 1747.971 425.293, 1750 402.456, 1750 402.294 C 1750 402.132, 1423.256 402, 1023.902 402 L 297.804 402 298.434 407.750 M 1024 614.500 L 1024 705 796 705 L 568 705 568 707.850 C 568 709.418, 579.025 832.657, 592.500 981.715 C 605.975 1130.773, 617 1253.014, 617 1253.362 C 617 1253.710, 708.462 1254.109, 820.250 1254.248 L 1023.500 1254.500 1023.753 1399.250 C 1023.893 1478.862, 1023.814 1544, 1023.580 1544 C 1022.770 1544, 821.749 1490.082, 821.475 1489.791 C 821.323 1489.631, 818.342 1456.988, 814.850 1417.250 L 808.500 1345 716.700 1345 L 624.901 1345 625.529 1350.750 C 625.875 1353.912, 631.673 1418.038, 638.414 1493.251 C 645.154 1568.464, 650.911 1630.244, 651.207 1630.540 C 651.502 1630.836, 734.039 1654.024, 834.622 1682.069 C 935.205 1710.115, 1018.962 1733.532, 1020.750 1734.108 L 1024 1735.155 1024 1828.686 L 1024 1922.217 1026.750 1921.538 C 1029.657 1920.821, 1072.952 1908.751, 1278.500 1851.357 C 1348.350 1831.853, 1427.678 1809.731, 1454.784 1802.198 L 1504.067 1788.500 1504.475 1786.500 C 1504.699 1785.400, 1530.115 1501.900, 1560.955 1156.500 C 1591.796 811.100, 1617.185 527.487, 1617.376 526.250 L 1617.723 524 1320.861 524 L 1024 524 1024 614.500 M 767.963 887.750 C 767.943 888.163, 771.635 929.788, 776.168 980.250 L 784.409 1072 904.205 1072 L 1024 1072 1024 979.500 L 1024 887 896 887 L 768 887 767.963 887.750" stroke="none" fill="#e54c21" fill-rule="evenodd"/><path d="M 1024 614.500 L 1024 705 1251 705 L 1478 705 1478 707.527 C 1478 708.916, 1474.400 748.898, 1470 796.376 C 1465.600 843.853, 1462 883.667, 1462 884.849 L 1462 887 1243 887 L 1024 887 1024 979.496 L 1024 1071.992 903.750 1072.250 C 837.612 1072.392, 932.337 1072.619, 1114.250 1072.754 L 1445 1073 1444.977 1074.750 C 1444.922 1078.867, 1395.222 1630.106, 1394.879 1630.406 C 1394.671 1630.588, 1311.128 1653.858, 1209.229 1682.118 L 1023.958 1733.500 1023.989 1827.427 C 1024.006 1879.086, 1024.128 1921.449, 1024.260 1921.567 C 1024.558 1921.831, 1503.091 1788.242, 1503.573 1787.760 C 1503.765 1787.568, 1529.142 1505.506, 1559.967 1160.955 C 1590.791 816.405, 1616.286 532.138, 1616.621 529.250 L 1617.230 524 1320.615 524 L 1024 524 1024 614.500 M 1023.500 1399.367 L 1023.500 1544.734 1030 1542.949 C 1033.575 1541.968, 1078.800 1529.835, 1130.500 1515.987 C 1182.200 1502.139, 1224.845 1490.485, 1225.266 1490.089 C 1225.847 1489.542, 1246.972 1261.241, 1246.995 1255.250 L 1247 1254 1135.250 1254 L 1023.500 1254 1023.500 1399.367" stroke="none" fill="#f16524" fill-rule="evenodd"/><path d="M 298.434 407.750 C 298.781 410.913, 309.633 532.300, 322.551 677.500 C 335.469 822.700, 348.042 964, 350.492 991.500 C 352.942 1019, 359.694 1094.825, 365.496 1160 C 371.299 1225.175, 380.321 1326.425, 385.545 1385 C 394.467 1485.024, 397.212 1515.830, 408.448 1642 C 410.921 1669.775, 416.773 1735.443, 421.452 1787.929 C 426.131 1840.416, 430.306 1883.673, 430.729 1884.058 C 431.660 1884.903, 1020.870 2048.005, 1022.979 2048.002 C 1023.793 2048.001, 1037.293 2044.435, 1052.979 2040.077 C 1128.121 2019.203, 1360.500 1954.814, 1402 1943.369 C 1414.925 1939.804, 1436.525 1933.815, 1450 1930.060 C 1463.475 1926.305, 1506.675 1914.340, 1546 1903.472 C 1585.325 1892.604, 1617.608 1883.631, 1617.740 1883.533 C 1617.871 1883.435, 1620.018 1860.437, 1622.510 1832.427 C 1625.002 1804.417, 1630.395 1743.925, 1634.495 1698 C 1638.595 1652.075, 1643.771 1594.025, 1645.997 1569 C 1648.224 1543.975, 1653.399 1485.925, 1657.497 1440 C 1665.177 1353.949, 1669.772 1302.380, 1677.547 1215 C 1680.019 1187.225, 1685.395 1126.925, 1689.495 1081 C 1693.595 1035.075, 1698.772 977.025, 1700.999 952 C 1706.272 892.741, 1722.793 707.351, 1728.490 643.500 C 1738.690 529.168, 1741.197 501.090, 1745.491 453.044 C 1747.971 425.293, 1750 402.456, 1750 402.294 C 1750 402.132, 1423.256 402, 1023.902 402 L 297.804 402 298.434 407.750 M 1024 614.500 L 1024 705 796 705 L 568 705 568 707.850 C 568 709.418, 579.025 832.657, 592.500 981.715 C 605.975 1130.773, 617 1253.014, 617 1253.362 C 617 1253.710, 708.462 1254.109, 820.250 1254.248 L 1023.500 1254.500 1023.753 1399.250 C 1023.893 1478.862, 1023.814 1544, 1023.580 1544 C 1022.770 1544, 821.749 1490.082, 821.475 1489.791 C 821.323 1489.631, 818.342 1456.988, 814.850 1417.250 L 808.500 1345 716.700 1345 L 624.901 1345 625.529 1350.750 C 625.875 1353.912, 631.673 1418.038, 638.414 1493.251 C 645.154 1568.464, 650.911 1630.244, 651.207 1630.540 C 651.502 1630.836, 734.039 1654.024, 834.622 1682.069 C 935.205 1710.115, 1018.962 1733.532, 1020.750 1734.108 L 1024 1735.155 1024 1828.686 L 1024 1922.217 1026.750 1921.538 C 1029.657 1920.821, 1072.952 1908.751, 1278.500 1851.357 C 1348.350 1831.853, 1427.678 1809.731, 1454.784 1802.198 L 1504.067 1788.500 1504.475 1786.500 C 1504.699 1785.400, 1530.115 1501.900, 1560.955 1156.500 C 1591.796 811.100, 1617.185 527.487, 1617.376 526.250 L 1617.723 524 1320.861 524 L 1024 524 1024 614.500 M 767.963 887.750 C 767.943 888.163, 771.635 929.788, 776.168 980.250 L 784.409 1072 904.205 1072 L 1024 1072 1024 979.500 L 1024 887 896 887 L 768 887 767.963 887.750" stroke="none" fill="#e54c21" fill-rule="evenodd"/><path d="M 298.434 407.750 C 298.781 410.913, 309.633 532.300, 322.551 677.500 C 335.469 822.700, 348.042 964, 350.492 991.500 C 352.942 1019, 359.694 1094.825, 365.496 1160 C 371.299 1225.175, 380.321 1326.425, 385.545 1385 C 394.467 1485.024, 397.212 1515.830, 408.448 1642 C 410.921 1669.775, 416.773 1735.443, 421.452 1787.929 C 426.131 1840.416, 430.306 1883.673, 430.729 1884.058 C 431.660 1884.903, 1020.870 2048.005, 1022.979 2048.002 C 1023.793 2048.001, 1037.293 2044.435, 1052.979 2040.077 C 1128.121 2019.203, 1360.500 1954.814, 1402 1943.369 C 1414.925 1939.804, 1436.525 1933.815, 1450 1930.060 C 1463.475 1926.305, 1506.675 1914.340, 1546 1903.472 C 1585.325 1892.604, 1617.608 1883.631, 1617.740 1883.533 C 1617.871 1883.435, 1620.018 1860.437, 1622.510 1832.427 C 1625.002 1804.417, 1630.395 1743.925, 1634.495 1698 C 1638.595 1652.075, 1643.771 1594.025, 1645.997 1569 C 1648.224 1543.975, 1653.399 1485.925, 1657.497 1440 C 1665.177 1353.949, 1669.772 1302.380, 1677.547 1215 C 1680.019 1187.225, 1685.395 1126.925, 1689.495 1081 C 1693.595 1035.075, 1698.772 977.025, 1700.999 952 C 1706.272 892.741, 1722.793 707.351, 1728.490 643.500 C 1738.690 529.168, 1741.197 501.090, 1745.491 453.044 C 1747.971 425.293, 1750 402.456, 1750 402.294 C 1750 402.132, 1423.256 402, 1023.902 402 L 297.804 402 298.434 407.750 M 1024 614.500 L 1024 705 796 705 L 568 705 568 707.850 C 568 709.418, 579.025 832.657, 592.500 981.715 C 605.975 1130.773, 617 1253.014, 617 1253.362 C 617 1253.710, 708.462 1254.109, 820.250 1254.248 L 1023.500 1254.500 1023.753 1399.250 C 1023.893 1478.862, 1023.814 1544, 1023.580 1544 C 1022.770 1544, 821.749 1490.082, 821.475 1489.791 C 821.323 1489.631, 818.342 1456.988, 814.850 1417.250 L 808.500 1345 716.700 1345 L 624.901 1345 625.529 1350.750 C 625.875 1353.912, 631.673 1418.038, 638.414 1493.251 C 645.154 1568.464, 650.911 1630.244, 651.207 1630.540 C 651.502 1630.836, 734.039 1654.024, 834.622 1682.069 C 935.205 1710.115, 1018.962 1733.532, 1020.750 1734.108 L 1024 1735.155 1024 1828.686 L 1024 1922.217 1026.750 1921.538 C 1029.657 1920.821, 1072.952 1908.751, 1278.500 1851.357 C 1348.350 1831.853, 1427.678 1809.731, 1454.784 1802.198 L 1504.067 1788.500 1504.475 1786.500 C 1504.699 1785.400, 1530.115 1501.900, 1560.955 1156.500 C 1591.796 811.100, 1617.185 527.487, 1617.376 526.250 L 1617.723 524 1320.861 524 L 1024 524 1024 614.500 M 767.963 887.750 C 767.943 888.163, 771.635 929.788, 776.168 980.250 L 784.409 1072 904.205 1072 L 1024 1072 1024 979.500 L 1024 887 896 887 L 768 887 767.963 887.750" stroke="none" fill="#e54c21" fill-rule="evenodd"/><path d="" stroke="none" fill="#e85324" fill-rule="evenodd"/></svg>