<?xml version="1.0" encoding="UTF-8"?>
<svg xmlns="http://www.w3.org/2000/svg" xmlns:xlink="http://www.w3.org/1999/xlink" width="329px" height="256px" viewBox="0 0 329 256" version="1.1">
<g id="surface1">
<path style=" stroke:none;fill-rule:evenodd;fill:rgb(21.176471%,42.352941%,60.392157%);fill-opacity:1;" d="M 151.707031 0.410156 C 124.632812 2.226562 107.996094 9.785156 103.589844 22.265625 L 102.738281 24.6875 L 102.730469 41.050781 L 102.722656 57.417969 L 164.5 57.417969 L 164.5 66.207031 L 118.53125 66.191406 L 72.5625 66.171875 L 70.636719 66.539062 C 60.925781 68.402344 52.617188 74.128906 46.90625 82.886719 C 41.054688 91.867188 37.984375 103.113281 36.898438 119.503906 L 36.480469 125.824219 L 36.886719 133.585938 L 37.289062 141.347656 L 38.039062 146.46875 C 40.558594 163.726562 46.402344 176.050781 55.5 183.300781 L 58.304688 185.53125 L 61.230469 186.929688 C 62.839844 187.695312 65.140625 188.609375 66.347656 188.953125 L 68.542969 189.585938 L 81.550781 189.71875 L 94.554688 189.847656 L 94.554688 155.246094 L 95.175781 152.046875 C 96.492188 145.277344 98.671875 140.121094 102.214844 135.398438 L 104.210938 132.742188 L 106.984375 130.539062 C 111.011719 127.335938 115.027344 125.453125 120.652344 124.128906 L 123.375 123.488281 L 160.296875 123.242188 L 197.21875 123 L 199.640625 122.40625 C 207.953125 120.371094 215.046875 116.371094 219.070312 111.441406 C 222.261719 107.53125 224.773438 101.546875 225.523438 96.066406 L 225.914062 93.203125 L 225.914062 29.410156 L 225.363281 27.230469 C 225.0625 26.03125 224.128906 23.675781 223.289062 21.992188 L 221.757812 18.9375 L 219.097656 16.105469 L 216.4375 13.277344 L 213.773438 11.4375 C 208.269531 7.640625 200.964844 4.699219 192.28125 2.78125 C 181.613281 0.425781 165.511719 -0.515625 151.707031 0.410156 M 125.1875 20.496094 L 123.347656 21.207031 L 121.757812 22.730469 L 120.171875 24.253906 L 119.21875 26.300781 L 118.261719 28.34375 L 118.28125 30.902344 L 118.304688 33.460938 L 119.0625 35.152344 C 119.480469 36.082031 120.40625 37.492188 121.121094 38.28125 L 122.417969 39.722656 L 124.523438 40.789062 L 126.632812 41.855469 L 129.207031 41.847656 L 131.78125 41.84375 L 133.824219 40.898438 L 135.867188 39.957031 L 138.914062 36.785156 L 140.375 32.886719 L 140.375 28.65625 L 139.761719 26.855469 L 139.148438 25.050781 L 137.109375 23.011719 L 135.074219 20.972656 L 133.269531 20.363281 L 131.46875 19.75 L 129.25 19.769531 L 127.03125 19.785156 L 125.1875 20.496094 "/>
<path style=" stroke:none;fill-rule:evenodd;fill:rgb(100%,85.490196%,29.411765%);fill-opacity:1;" d="M 234.21875 82.351562 L 234.046875 100.386719 L 233.304688 103.496094 C 231.109375 112.652344 227.433594 118.996094 221.570312 123.734375 C 217.136719 127.316406 212.195312 129.324219 205.210938 130.378906 L 201.605469 130.921875 L 168.042969 130.921875 L 134.480469 130.925781 L 131.851562 131.320312 C 124.609375 132.410156 117.929688 135.253906 113.277344 139.226562 C 108.949219 142.925781 106.476562 146.65625 104.59375 152.320312 L 103.503906 155.613281 L 103.089844 159.269531 L 102.679688 162.925781 L 102.792969 194.558594 L 102.902344 226.195312 L 103.882812 228.875 C 104.421875 230.351562 105.410156 232.484375 106.078125 233.617188 L 107.289062 235.675781 L 110.214844 238.648438 C 113.695312 242.183594 116.503906 244.136719 121.5 246.5 C 129.734375 250.394531 139.171875 252.542969 152.75 253.613281 C 171.460938 255.089844 190.949219 253.347656 204.128906 249.015625 C 214.910156 245.476562 222.734375 239.167969 225.183594 232.039062 C 226.078125 229.445312 226.070312 229.597656 225.984375 211.839844 L 225.914062 196.753906 L 164.113281 196.753906 L 164.316406 188.160156 L 210.558594 188.089844 L 256.804688 188.015625 L 260.410156 187.09375 L 264.019531 186.167969 L 267.058594 184.695312 C 280.128906 178.367188 288.175781 164.574219 291.0625 143.542969 L 291.867188 137.691406 L 291.867188 116.847656 L 291.222656 111.359375 C 290.101562 101.785156 287.671875 92.367188 284.617188 85.757812 C 281.675781 79.382812 276.742188 73.28125 271.636719 69.699219 C 268.246094 67.320312 267.324219 66.84375 263.6875 65.578125 L 260.824219 64.582031 L 247.605469 64.449219 L 234.390625 64.316406 L 234.21875 82.351562 M 196.667969 212.621094 C 195.765625 212.878906 194.519531 213.355469 193.898438 213.675781 C 192.351562 214.480469 190.160156 216.988281 189.234375 219.019531 L 188.457031 220.707031 L 188.453125 223.453125 L 188.445312 226.195312 L 189.339844 228.015625 C 189.832031 229.019531 190.949219 230.53125 191.820312 231.378906 L 193.398438 232.914062 L 195.492188 233.707031 L 197.582031 234.496094 L 200.011719 234.328125 L 202.4375 234.160156 L 204.03125 233.386719 C 206.148438 232.363281 208.207031 230.308594 209.390625 228.042969 L 210.359375 226.195312 L 210.359375 223.453125 L 210.363281 220.707031 L 209.589844 219.019531 C 209.164062 218.089844 208.207031 216.652344 207.460938 215.828125 L 206.109375 214.332031 L 204.222656 213.425781 L 202.335938 212.523438 L 198.3125 212.148438 L 196.667969 212.621094 "/>
</g>
</svg>
