<svg xmlns="http://www.w3.org/2000/svg" width="900" height="700" viewBox="0 0 900 700" version="1.1"><path d="M 415 1.123 C 340.943 6.084, 295.427 26.751, 283.377 60.887 L 281.042 67.500 281.021 112.250 L 281 157 365.500 157 L 450 157 450 169.020 L 450 181.040 324.250 180.988 L 198.500 180.935 193.230 181.946 C 166.666 187.038, 143.933 202.693, 128.319 226.646 C 112.312 251.203, 103.904 281.951, 100.937 326.773 L 99.794 344.046 100.902 365.273 L 102.011 386.500 104.056 400.500 C 110.950 447.694, 126.933 481.389, 151.828 501.208 L 159.500 507.315 167.500 511.132 C 171.900 513.231, 178.200 515.725, 181.500 516.674 L 187.500 518.401 223.083 518.757 L 258.665 519.114 258.665 471.807 L 258.664 424.500 260.364 415.752 C 263.960 397.243, 269.925 383.141, 279.617 370.233 L 285.073 362.966 292.659 356.938 C 303.677 348.182, 314.660 343.035, 330.056 339.411 L 337.500 337.659 438.500 336.991 L 539.500 336.323 546.127 334.702 C 568.868 329.143, 588.273 318.197, 599.276 304.723 C 608.012 294.026, 614.881 277.668, 616.930 262.678 L 618 254.855 618 167.638 L 618 80.420 616.498 74.460 C 615.672 71.182, 613.115 64.738, 610.816 60.140 L 606.636 51.779 599.357 44.041 L 592.078 36.304 584.789 31.278 C 569.730 20.894, 549.748 12.849, 526 7.607 C 496.815 1.165, 452.771 -1.407, 415 1.123 M 342.460 56.044 L 337.421 57.983 333.081 62.153 L 328.742 66.322 326.128 71.911 L 323.515 77.500 323.571 84.500 L 323.626 91.500 325.700 96.122 C 326.841 98.665, 329.374 102.515, 331.330 104.680 L 334.884 108.614 340.646 111.529 L 346.407 114.444 353.454 114.429 L 360.500 114.413 366.089 111.836 L 371.678 109.258 375.845 104.922 L 380.012 100.585 382.006 95.255 L 384 89.925 384 84.141 L 384 78.356 382.324 73.428 L 380.648 68.500 375.074 62.926 L 369.500 57.352 364.572 55.676 L 359.644 54 353.572 54.052 L 347.500 54.104 342.460 56.044" stroke="none" fill="#366c9a" fill-rule="evenodd"/><path d="M 640.722 225.183 L 640.254 274.500 638.217 283 C 632.218 308.031, 622.156 325.377, 606.120 338.333 C 593.992 348.133, 580.472 353.621, 561.371 356.500 L 551.500 357.988 459.692 357.994 L 367.883 358 360.692 359.081 C 340.876 362.061, 322.603 369.836, 309.882 380.702 C 298.041 390.815, 291.276 401.012, 286.128 416.500 L 283.137 425.500 282.014 435.500 L 280.892 445.500 281.196 532 L 281.500 618.500 284.179 625.835 C 285.653 629.869, 288.353 635.703, 290.179 638.799 L 293.500 644.429 301.500 652.554 C 311.017 662.221, 318.701 667.565, 332.370 674.024 C 354.894 684.669, 380.713 690.543, 417.855 693.473 C 469.041 697.511, 522.358 692.744, 558.409 680.906 C 587.903 671.221, 609.299 653.975, 616.006 634.483 C 618.446 627.390, 618.429 627.811, 618.197 579.250 L 618 538 533.468 538 L 448.937 538 449.218 526.250 L 449.500 514.500 576 514.303 L 702.500 514.106 712.372 511.580 L 722.244 509.053 730.556 505.030 C 766.311 487.724, 788.322 450.006, 796.224 392.500 L 798.423 376.500 798.421 348 L 798.418 319.500 796.659 304.500 C 793.589 278.323, 786.942 252.565, 778.591 234.491 C 770.537 217.059, 757.046 200.377, 743.082 190.584 C 733.800 184.074, 731.287 182.771, 721.332 179.310 L 713.500 176.587 677.345 176.227 L 641.190 175.867 640.722 225.183 M 538 581.385 C 535.525 582.096, 532.116 583.395, 530.425 584.274 C 526.193 586.471, 520.200 593.327, 517.658 598.878 L 515.541 603.500 515.521 611 L 515.500 618.500 517.953 623.484 C 519.301 626.225, 522.352 630.361, 524.732 632.673 L 529.058 636.878 534.779 639.038 L 540.500 641.198 547.143 640.740 L 553.785 640.282 558.143 638.172 C 563.937 635.365, 569.565 629.755, 572.805 623.558 L 575.450 618.500 575.454 611 L 575.459 603.500 573.342 598.878 C 572.178 596.335, 569.559 592.411, 567.523 590.157 L 563.821 586.060 558.661 583.589 L 553.500 581.118 548 580.606 L 542.500 580.094 538 581.385" stroke="none" fill="#ffda4b" fill-rule="evenodd"/></svg>