<svg xmlns="http://www.w3.org/2000/svg" width="256" height="256" viewBox="0 0 256 256" version="1.1"><path d="M 109.500 3.455 C 53.129 12.317, 10.791 55.622, 3.066 112.322 C -2.488 153.084, 14.653 197.228, 46.336 223.758 C 94.518 264.104, 162.193 263.999, 209.875 223.503 C 236.240 201.112, 251.810 169.286, 253.714 133.897 L 254.284 123.295 253.070 113.646 C 251.492 101.114, 248.090 88.561, 243.193 77.202 L 239.262 68.084 232.631 58.122 L 225.999 48.161 216.919 39.081 L 207.839 30.001 197.878 23.369 C 181.893 12.728, 165.617 6.485, 146 3.471 L 136.500 2.012 127 2.105 C 121.775 2.156, 113.900 2.764, 109.500 3.455 M 105.622 10.555 C 57.479 20.120, 19.624 58.218, 10.507 106.278 L 9 114.221 9 128 L 9 141.779 10.507 149.722 C 19.717 198.275, 58.762 237.091, 106.881 245.530 L 115.262 247 128.521 247 L 141.779 247 149.722 245.493 C 198.275 236.283, 237.091 197.238, 245.530 149.119 L 247 140.738 247 127.479 L 247 114.221 245.493 106.278 C 236.317 57.902, 198.098 19.683, 149.722 10.507 L 141.779 9 127.140 9.094 L 112.500 9.188 105.622 10.555 M 116 22.038 C 90.265 25.106, 68.598 36.047, 50.491 55.118 C 34.132 72.348, 24.644 92.975, 21.992 117.074 L 20.862 127.345 21.525 134.922 C 23.014 151.926, 28.200 168.909, 35.734 181.454 C 54.484 212.675, 84.360 231.159, 121.506 234.520 L 128.512 235.154 138.855 234.016 C 163.028 231.356, 183.633 221.886, 200.882 205.509 C 220.574 186.812, 231.106 165.345, 234.118 137.768 L 235.180 128.035 234.042 117.464 L 232.904 106.893 230.434 98.367 C 225.337 80.781, 216.927 66.825, 203.054 52.934 L 193.500 43.368 187 39.142 C 172.417 29.661, 156.606 23.958, 139.666 22.069 C 129.111 20.892, 125.648 20.887, 116 22.038 M 140.457 64.863 C 136.990 66.978, 134.627 70.239, 133.630 74.287 L 132.943 77.075 133.956 80.835 L 134.968 84.595 137.937 87.440 L 140.906 90.285 146.111 90.785 L 151.316 91.285 154.521 89.559 L 157.726 87.833 159.863 84.030 L 162 80.228 161.996 76.864 L 161.993 73.500 160.005 70.241 C 158.912 68.448, 156.552 66.088, 154.759 64.995 L 151.500 63.007 147.500 63.007 L 143.500 63.007 140.457 64.863 M 142.073 72.635 C 140.933 74.084, 140 76.048, 140 77 C 140 77.952, 140.933 79.916, 142.073 81.365 L 144.145 84 147.573 84 L 151 84 153 82 L 155 80 155 77.174 L 155 74.349 152.686 72.174 L 150.371 70 147.258 70 L 144.145 70 142.073 72.635 M 164.799 78.410 L 164.347 83.856 161.571 87.496 C 160.043 89.499, 157.715 91.628, 156.397 92.229 C 155.079 92.830, 154 93.588, 154 93.913 C 154 94.239, 156.588 96.126, 159.750 98.107 C 162.912 100.088, 169.385 104.218, 174.133 107.285 L 182.766 112.861 182.823 108.750 L 182.880 104.638 184.751 102.069 C 185.780 100.656, 188.046 98.825, 189.787 98 C 191.528 97.175, 192.851 96.212, 192.726 95.859 C 192.526 95.292, 183.783 87.965, 169.875 76.708 L 165.251 72.964 164.799 78.410 M 111.735 98.752 L 94.034 120.500 100.267 121.069 C 107.352 121.716, 109.316 122.584, 113.393 126.868 L 116.286 129.908 117.458 134.524 L 118.630 139.141 131.991 118.320 C 139.340 106.869, 145.774 96.943, 146.289 96.262 L 147.225 95.024 145.863 94.595 C 145.113 94.360, 143.271 93.898, 141.769 93.569 L 139.038 92.971 135.548 89.481 L 132.058 85.991 130.748 81.497 L 129.437 77.003 111.735 98.752 M 190.763 100.565 C 188.146 101.985, 185 106.617, 185 109.049 C 185 109.681, 185.697 111.666, 186.548 113.460 L 188.096 116.723 190.595 117.861 C 191.970 118.488, 194.458 119, 196.124 119 L 199.154 119 202.077 116.077 L 205 113.154 205 110.124 C 205 108.458, 204.488 105.970, 203.861 104.595 L 202.723 102.096 199.460 100.548 C 195.479 98.659, 194.272 98.661, 190.763 100.565 M 191.571 105.571 C 190.707 106.436, 190 108.225, 190 109.548 L 190 111.954 192.541 113.619 L 195.082 115.284 197.454 114.203 C 198.759 113.608, 200.128 112.172, 200.496 111.012 L 201.166 108.902 199.560 106.451 L 197.954 104 195.548 104 C 194.225 104, 192.436 104.707, 191.571 105.571 M 184 125.500 L 184 134 186 136 L 188 138 195.066 138 L 202.131 138 204.066 136.965 L 206 135.930 206 126.376 L 206 116.822 202.923 119.411 L 199.847 122 195.828 122 L 191.809 122 188.904 120.284 C 187.307 119.341, 186 118.216, 186 117.784 C 186 117.353, 185.550 117, 185 117 L 184 117 184 125.500 M 93.020 125.752 L 89.540 127.500 87.270 130.898 L 85 134.296 85.004 138.898 L 85.007 143.500 86.995 146.759 C 88.088 148.552, 90.448 150.912, 92.241 152.005 L 95.500 153.993 99.516 153.996 L 103.531 154 106.991 152.145 L 110.450 150.289 112.801 145.895 L 115.153 141.500 114.650 137.587 C 114.061 133.009, 111.621 129.388, 107.010 126.250 L 103.704 124 100.102 124.002 C 98.121 124.002, 94.934 124.790, 93.020 125.752 M 97.030 132.286 C 95.672 132.970, 93.904 134.698, 93.102 136.127 L 91.644 138.726 92.889 141.733 L 94.135 144.741 96.682 145.901 L 99.230 147.062 101.365 146.413 C 102.539 146.056, 104.287 145.072, 105.250 144.227 L 107 142.690 107 139.456 L 107 136.222 105.250 134.198 C 104.287 133.085, 102.600 131.920, 101.500 131.609 L 99.500 131.044 97.030 132.286 M 188 140.684 C 188 141.061, 188.741 144.008, 189.646 147.235 L 191.292 153.101 195.310 152.800 L 199.329 152.500 201.086 146.250 L 202.843 140 195.421 140 C 191.340 140, 188 140.308, 188 140.684 M 81.525 147.124 C 79.744 151.933, 76 163.488, 76 164.175 L 76 165 99.500 165 C 112.425 165, 123 164.854, 123 164.675 C 123 164.370, 118.551 151.031, 117.505 148.201 L 117.025 146.902 113.864 150.502 C 112.126 152.482, 109.342 154.806, 107.678 155.666 L 104.653 157.231 99.971 157.231 L 95.289 157.231 91.528 155.446 L 87.768 153.662 84.901 149.705 L 82.034 145.747 81.525 147.124 M 194.100 160.250 C 194.155 163.137, 194.560 166.625, 195 168 L 195.801 170.500 195.900 167.390 C 195.955 165.679, 196.286 162.191, 196.636 159.640 L 197.272 155 195.636 155 L 194 155 194.100 160.250 M 69.667 168.667 C 69.300 169.033, 69 170.608, 69 172.167 L 69 175 99 175 L 129 175 129 171.500 L 129 168 99.667 168 C 83.533 168, 70.033 168.300, 69.667 168.667 M 63.200 179.200 L 62 180.400 62 185.700 L 62 191 99.500 191 L 137 191 137 185.700 L 137 180.400 135.800 179.200 L 134.600 178 99.500 178 L 64.400 178 63.200 179.200" stroke="none" fill="#073656" fill-rule="evenodd"/></svg>